<svg xmlns="http://www.w3.org/2000/svg" viewBox="0 0 512 512"
     width="32.000000pt" height="32.000000pt">
    <g xmlns="http://www.w3.org/2000/svg" transform="matrix(0 1 -1 0 512 -0)">
        <g transform="translate(0.000000,512.000000) scale(0.100000,-0.100000)" fill="#000000" stroke="none">
            <path d="M841 3024 c-253 -68 -410 -331 -346 -579 67 -256 329 -415 580 -350 190 50 330 207 358 401 48 331 -270 615 -592 528z"/>
            <path d="M2441 3024 c-253 -68 -410 -331 -346 -579 67 -256 329 -415 580 -350 190 50 330 207 358 401 48 331 -270 615 -592 528z"/>
            <path d="M4041 3024 c-253 -68 -410 -331 -346 -579 67 -256 329 -415 580 -350 190 50 330 207 358 401 48 331 -270 615 -592 528z"/>
        </g></g></svg>